<?xml version="1.0" encoding="UTF-8"?>
<svg width="1000px" height="600px" viewBox="0 0 1000 600" version="1.1" xmlns="http://www.w3.org/2000/svg" xmlns:xlink="http://www.w3.org/1999/xlink">
    <title>CollabCanvas Logo with Text</title>
    <g stroke="none" stroke-width="1" fill="none" fill-rule="evenodd">
        <!-- Logo Icon -->
        <g transform="translate(200, 50)" fill="#000000" fill-rule="nonzero">
            <!-- Rounded Square Background -->
            <path d="M333,0 C366,0 400,33 400,66 L400,333 C400,366 366,400 333,400 L66,400 C33,400 0,366 0,333 L0,66 C0,33 33,0 66,0 L333,0 Z" stroke="#000000" stroke-width="14" fill="white"/>
            
            <!-- Pencil Icon -->
            <path d="M80,233 L213,100 C223,90 240,90 250,100 L280,130 C290,140 290,156 280,166 L146,300 L80,320 L80,233 Z" stroke="#000000" stroke-width="12" fill="white"/>
            <path d="M240,120 L260,140" stroke="#000000" stroke-width="10"/>
            <path d="M80,233 L80,320 L146,300 Z" fill="#000000"/>
            
            <!-- Cursor Arrow -->
            <path d="M300,233 L353,286 L320,320 L300,260 L300,233 Z" fill="#000000"/>
        </g>
        
        <!-- Text "collabcanvas" -->
        <text font-family="Arial, sans-serif" font-size="90" font-weight="bold" fill="#000000" x="500" y="450" text-anchor="middle">
            collabcanvas
        </text>
    </g>
</svg>
