<?xml version="1.0" encoding="UTF-8"?>
<svg width="800px" height="800px" viewBox="0 0 800 800" version="1.1" xmlns="http://www.w3.org/2000/svg" xmlns:xlink="http://www.w3.org/1999/xlink">
    <title>CollabCanvas Logo</title>
    <g stroke="none" stroke-width="1" fill="none" fill-rule="evenodd">
        <g transform="translate(100, 100)" fill="#000000" fill-rule="nonzero">
            <!-- Rounded Square Background -->
            <path d="M500,0 C550,0 600,50 600,100 L600,500 C600,550 550,600 500,600 L100,600 C50,600 0,550 0,500 L0,100 C0,50 50,0 100,0 L500,0 Z" stroke="#000000" stroke-width="20" fill="white"/>
            
            <!-- Pencil Icon -->
            <path d="M120,350 L320,150 C335,135 360,135 375,150 L420,195 C435,210 435,235 420,250 L220,450 L120,480 L120,350 Z" stroke="#000000" stroke-width="18" fill="white"/>
            <path d="M360,180 L390,210" stroke="#000000" stroke-width="15"/>
            <path d="M120,350 L120,480 L220,450 Z" fill="#000000"/>
            
            <!-- Cursor Arrow -->
            <path d="M450,350 L530,430 L480,480 L450,390 L450,350 Z" fill="#000000"/>
        </g>
    </g>
</svg>
